<?xml version="1.0" standalone="no"?>
<!DOCTYPE svg PUBLIC "-//W3C//DTD SVG 20010904//EN"
 "http://www.w3.org/TR/2001/REC-SVG-20010904/DTD/svg10.dtd">
<svg version="1.0" xmlns="http://www.w3.org/2000/svg"
 width="1058.000000pt" height="1280.000000pt" viewBox="0 0 1058.000000 1280.000000"
 preserveAspectRatio="xMidYMid meet">
<g transform="translate(0.000000,1280.000000) scale(0.100000,-0.100000)"
fill="#000000" stroke="none">
<path d="M5093 12116 c-266 -51 -505 -198 -664 -408 -235 -313 -284 -719 -130
-1079 55 -127 122 -222 240 -339 l106 -105 3 -362 3 -363 27 0 c50 0 52 -8 52
-240 0 -232 -2 -240 -52 -240 -21 0 -29 -6 -34 -25 l-6 -25 -868 0 -868 0 -40
50 c-168 211 -449 251 -661 95 -282 -207 -243 -644 72 -800 197 -97 410 -57
560 105 l65 70 866 0 c855 0 865 0 876 -20 7 -13 21 -20 40 -20 19 0 33 -7 40
-20 7 -14 10 -644 7 -2122 -3 -2092 -3 -2104 -24 -2238 -32 -199 -67 -359
-133 -616 -167 -638 -210 -822 -210 -901 0 -29 -22 -30 -87 -2 -26 11 -106 35
-178 54 -240 61 -577 191 -849 327 -825 411 -1405 1024 -1654 1750 -47 135
-94 329 -90 366 l3 27 130 11 c72 6 144 14 161 18 70 16 111 106 98 215 -18
151 -147 464 -309 747 -84 146 -256 401 -314 464 l-51 55 -45 -50 c-113 -125
-261 -361 -379 -607 -129 -267 -231 -570 -231 -686 0 -59 2 -66 32 -92 42 -38
114 -58 247 -70 60 -5 111 -11 113 -13 2 -2 10 -46 19 -97 117 -727 460 -1461
968 -2075 125 -151 405 -436 556 -566 457 -393 967 -702 1582 -960 150 -63
436 -168 555 -204 285 -87 454 -195 545 -347 49 -82 75 -103 118 -93 24 5 39
19 58 52 60 102 113 163 184 213 104 74 190 111 441 194 853 283 1534 655
2117 1155 223 192 491 477 673 718 437 577 740 1299 822 1961 8 61 -5 56 183
71 192 16 222 36 230 164 5 94 -14 175 -85 352 -123 311 -380 752 -543 935
l-40 45 -55 -58 c-178 -188 -435 -673 -549 -1037 -65 -207 -71 -264 -37 -328
23 -44 129 -73 315 -88 l78 -6 -7 -61 c-9 -87 -66 -304 -111 -422 -263 -706
-830 -1283 -1639 -1671 -259 -124 -468 -203 -800 -303 -88 -27 -195 -62 -237
-79 -87 -33 -98 -30 -98 31 0 93 -39 295 -131 686 -84 356 -142 639 -166 821
-17 126 -18 268 -18 2250 l0 2115 22 10 c12 5 24 17 26 27 5 17 47 18 852 18
l846 0 72 -73 c84 -86 162 -129 267 -148 195 -35 405 69 497 246 43 84 57 151
51 256 -7 117 -51 214 -136 298 -197 198 -498 186 -691 -26 l-66 -73 -845 2
c-841 3 -845 3 -848 23 -2 11 -13 25 -25 30 -22 10 -22 12 -22 235 0 224 0
225 23 235 l22 10 0 363 0 364 93 92 c278 272 387 630 307 1008 -40 188 -127
350 -267 498 -149 157 -311 254 -511 307 -120 31 -344 41 -459 19z m385 -397
c119 -37 200 -86 293 -179 139 -137 203 -292 203 -485 -1 -191 -65 -347 -199
-480 -89 -89 -157 -133 -267 -173 -67 -25 -85 -27 -223 -27 -138 0 -156 2
-223 27 -108 39 -178 84 -262 168 -84 84 -141 174 -171 270 -60 193 -42 372
53 553 47 89 183 223 273 269 81 41 157 67 229 79 76 12 217 1 294 -22z"/>
</g>
</svg>
